<svg width="300" height="300" viewBox="0 0 300 300" xmlns="http://www.w3.org/2000/svg"
  xmlns:xlink="http://www.w3.org/1999/xlink">
  <defs>
    <path d="M150 300C67.157 300 0 232.843 0 150S67.157 0 150 0s150 67.157 150 150-67.157 150-150 150z" id="a" />
  </defs>
  <g fill="none" fill-rule="evenodd">
    <mask id="b" fill="#fff">
      <use xlink:href="#a" />
    </mask>
    <use fill="#FFF" fill-rule="nonzero" xlink:href="#a" />
    <path d="M180 271.38v28.623h-60V271.38a125.29 125.29 0 0 0 30 3.623 125.29 125.29 0 0 0 30-3.623z" fill="#BA3E48"
      mask="url(#b)" />
    <path d="M150 250c55.228 0 100-44.772 100-100S205.228 50 150 50 50 94.772 50 150s44.772 100 100 100z" fill="#BA3E48"
      fill-rule="nonzero" mask="url(#b)" />
  </g>
</svg>
