<?xml version="1.0" encoding="UTF-8"?>
<svg width="1940px" height="320px" viewBox="0 0 1940 320" version="1.1" xmlns="http://www.w3.org/2000/svg" xmlns:xlink="http://www.w3.org/1999/xlink">
    <!-- Generator: Sketch 52.6 (67491) - http://www.bohemiancoding.com/sketch -->
    <title>logo-on-white</title>
    <desc>Created with Sketch.</desc>
    <g id="logo-on-white" stroke="none" stroke-width="1" fill="none" fill-rule="evenodd">
        <g id="name-black" transform="translate(404.000000, 38.000000)" fill="#424242">
            <path d="M111.541166,66.3947458 C100.647494,54.222885 85.2544935,48.1370459 65.3617021,48.1370459 C48.9422552,48.1370459 36.9830779,51.2590023 29.4838113,57.5030088 C21.9845447,63.7470153 18.2349676,72.1644422 18.2349676,82.7555418 C18.2349676,88.1301297 19.1822292,92.5957129 21.0767808,96.1524255 C22.9713323,99.7091381 25.9315247,102.752058 29.9574468,105.281275 C33.9833689,107.810493 39.0748998,109.944489 45.2321924,111.683326 C51.389485,113.422163 58.8097006,115.240011 67.493062,117.136925 C76.4921819,119.033838 84.662313,121.128315 92.0037003,123.420419 C99.3450876,125.712523 105.581226,128.597368 110.712303,132.075043 C115.843381,135.552717 119.790304,139.820708 122.553191,144.879144 C125.316079,149.93758 126.697502,156.181493 126.697502,163.61107 C126.697502,171.040647 125.237141,177.521671 122.316374,183.054335 C119.395607,188.586999 115.290807,193.210656 110.00185,196.925444 C104.712894,200.640233 98.3978165,203.446042 91.0564292,205.342955 C83.7150419,207.239869 75.5449109,208.188311 66.5457909,208.188311 C40.3378276,208.188311 18.1561191,199.810403 0,183.054335 L6.39407956,173.332702 C13.4986479,180.76228 22.181879,186.650527 32.4440333,190.99762 C42.7061876,195.344713 54.2312034,197.518227 67.0194265,197.518227 C81.7022011,197.518227 93.1877476,194.830973 101.476411,189.456385 C109.765074,184.081798 113.909343,175.941 113.909343,165.033748 C113.909343,159.501084 112.804205,154.79839 110.593895,150.925525 C108.383584,147.05266 105.107638,143.693593 100.765957,140.848223 C96.4242768,138.002853 90.9380535,135.55271 84.307123,133.497721 C77.6761926,131.442731 69.9402231,129.46681 61.0989824,127.569896 C52.0998625,125.672983 44.1665468,123.657543 37.2987974,121.523515 C30.431048,119.389487 24.6685401,116.702234 20.0111008,113.461673 C15.3536616,110.221113 11.8408999,106.308788 9.47271045,101.724581 C7.104521,97.1403734 5.92044403,91.3706817 5.92044403,84.4153327 C5.92044403,76.8276792 7.38080562,70.1095452 10.3015726,64.2607289 C13.2223396,58.4119127 17.2876705,53.4721082 22.4976873,49.4411673 C27.7077041,45.4102264 33.9438428,42.3673068 41.2062905,40.3123174 C48.4687381,38.2573279 56.5204615,37.2298485 65.3617021,37.2298485 C76.2553736,37.2298485 85.9648047,38.8501044 94.4902868,42.0906648 C103.015769,45.3312251 110.751738,50.2710296 117.698427,56.9102264 L111.541166,66.3947458 Z" id="Path"></path>
            <path d="M145.406105,121.404958 C145.406105,111.288087 147.182221,101.210886 150.734505,91.1730528 C154.286789,81.1352196 159.457259,72.1645346 166.246068,64.2607289 C173.034878,56.3569232 181.362886,49.9154182 191.230342,44.9360206 C201.097798,39.956623 212.34653,37.4669615 224.976873,37.4669615 C239.975406,37.4669615 252.763438,40.9050654 263.341351,47.7813764 C273.919263,54.6576874 281.81311,63.4702986 287.023127,74.2194743 L277.076781,79.910186 C274.077074,74.0613698 270.564312,69.1610837 266.53839,65.2091809 C262.512468,61.257278 258.170853,58.0562847 253.513414,55.6061049 C248.855974,53.1559252 244.001259,51.3775956 238.949121,50.2710628 C233.896984,49.16453 228.92386,48.6112719 224.029602,48.6112719 C213.29381,48.6112719 203.821194,50.7847858 195.611471,55.131879 C187.401747,59.4789721 180.455163,65.1301084 174.771508,72.0854575 C169.087853,79.0408065 164.785707,86.9049752 161.86494,95.6781995 C158.944173,104.451424 157.483811,113.264035 157.483811,122.116297 C157.483811,132.075093 159.220458,141.559517 162.693802,150.569856 C166.167147,159.580194 170.903454,167.5234 176.902868,174.399711 C182.902281,181.276022 190.006743,186.769084 198.216466,190.879063 C206.42619,194.989042 215.267298,197.044001 224.740056,197.044001 C229.792193,197.044001 235.002132,196.411706 240.370028,195.147097 C245.737924,193.882488 250.868924,191.906566 255.763182,189.219272 C260.65744,186.531978 265.235871,183.093875 269.498612,178.904858 C273.761353,174.715841 277.313584,169.776036 280.155412,164.085296 L290.575393,169.064669 C287.733566,175.387713 283.865581,180.999331 278.971323,185.899691 C274.077065,190.80005 268.630311,194.909967 262.630897,198.229566 C256.631484,201.549164 250.276938,204.038826 243.567068,205.698625 C236.857197,207.358424 230.265836,208.188311 223.792784,208.188311 C212.267596,208.188311 201.729311,205.659131 192.177613,200.600696 C182.625916,195.54226 174.376846,188.942681 167.430157,180.801761 C160.483468,172.660842 155.076183,163.413528 151.208141,153.059542 C147.340098,142.705557 145.406105,132.154134 145.406105,121.404958 Z" id="Path"></path>
            <polygon id="Path" points="450.6642 38.4154135 450.6642 206.765633 438.586494 206.765633 438.586494 126.147218 332.492137 126.147218 332.492137 206.765633 320.414431 206.765633 320.414431 38.4154135 332.492137 38.4154135 332.492137 115.240021 438.586494 115.240021 438.586494 38.4154135"></polygon>
            <polygon id="Path" points="520.683335 21.0234848 520.683335 0.157542067 531.103316 0.157542067 531.103316 21.0234848"></polygon>
            <polygon id="Path" points="592.360131 21.0234848 592.360131 0.157542067 602.780113 0.157542067 602.780113 21.0234848"></polygon>
            <path d="M561.494912,207.951198 C549.811844,207.951198 539.155151,205.501055 529.524514,200.600696 C519.893877,195.700336 511.605338,189.29835 504.658649,181.394544 C497.71196,173.490738 492.344145,164.401498 488.555042,154.126551 C484.765939,143.851603 482.871415,133.339699 482.871415,122.590523 C482.871415,111.367119 484.884346,100.618105 488.910268,90.3431574 C492.93619,80.0682099 498.461883,70.9789697 505.487512,63.075164 C512.51314,55.1713583 520.841148,48.887927 530.471785,44.2246816 C540.102422,39.5614363 550.5223,37.2298485 561.73173,37.2298485 C573.414798,37.2298485 584.11096,39.71951 593.820537,44.6989076 C603.530113,49.6783052 611.818652,56.1988471 618.686401,64.2607289 C625.554151,72.3226108 630.882497,81.4513694 634.6716,91.6472788 C638.460703,101.843188 640.355227,112.1575 640.355227,122.590523 C640.355227,133.972004 638.342296,144.800055 634.316374,155.075002 C630.290452,165.34995 624.764759,174.399672 617.73913,182.224439 C610.713502,190.049207 602.385494,196.29312 592.754857,200.956365 C583.12422,205.619611 572.704342,207.951198 561.494912,207.951198 Z M494.949121,122.590523 C494.949121,132.233166 496.56736,141.519999 499.803885,150.451299 C503.040411,159.3826 507.618842,167.286287 513.539315,174.162598 C519.459789,181.038909 526.524782,186.531971 534.734505,190.64195 C542.944229,194.751929 551.943213,196.806888 561.73173,196.806888 C571.836005,196.806888 580.953398,194.672892 589.084181,190.404837 C597.214965,186.136782 604.16155,180.485646 609.924144,173.451259 C615.686739,166.416872 620.146762,158.473666 623.304348,149.621404 C626.461934,140.769141 628.040703,131.758938 628.040703,122.590523 C628.040703,112.94788 626.382995,103.661048 623.06753,94.7297476 C619.752065,85.7984471 615.134165,77.89476 609.213691,71.018449 C603.293217,64.142138 596.307163,58.6490755 588.255319,54.5390965 C580.203475,50.4291175 571.362367,48.3741589 561.73173,48.3741589 C551.627455,48.3741589 542.470593,50.5081544 534.26087,54.7762095 C526.051146,59.0442646 519.025623,64.6954009 513.184089,71.729788 C507.342555,78.7641751 502.843062,86.7073807 499.685476,95.559643 C496.52789,104.411905 494.949121,113.422109 494.949121,122.590523 Z" id="Combined-Shape"></path>
            <polygon id="Path" points="684.876966 61.1782601 684.876966 206.765633 672.79926 206.765633 672.79926 38.4154135 682.035153 38.4154135 799.970398 186.61103 799.970398 38.4154135 812.048104 38.4154135 812.048104 206.765633 800.917669 206.765633"></polygon>
            <polygon id="Path" points="920.273821 39.6009784 932.114709 39.6009784 957.217391 100.776129 982.320074 39.6009784 994.160962 39.6009784 964.558742 110.497761 999.844588 192.538854 1064.25902 38.4154135 1077.52081 38.4154135 1005.52821 206.765633 994.39778 206.765633 957.454209 120.219394 920.273821 206.765633 909.143386 206.765633 837.387604 38.4154135 850.412581 38.4154135 915.06383 192.538854 949.876041 110.497761"></polygon>
            <path d="M1155.67068,38.4154135 L1166.09066,38.4154135 L1237.13599,206.765633 L1224.34783,206.765633 L1200.90287,151.281195 L1120.62165,151.281195 L1097.17669,206.765633 L1084.15171,206.765633 L1155.67068,38.4154135 Z M1197.58742,141.322449 L1160.88067,53.1164186 L1123.46346,141.322449 L1197.58742,141.322449 Z" id="Combined-Shape"></path>
            <polygon id="Path" points="1262.7123 206.765633 1262.7123 38.4154135 1274.79001 38.4154135 1274.79001 195.858436 1375.20074 195.858436 1375.20074 206.765633"></polygon>
            <path d="M1400.30342,206.765633 L1400.30342,38.4154135 L1456.19241,38.4154135 C1469.45428,38.4154135 1481.0977,40.6284459 1491.12303,45.0545771 C1501.14837,49.4807083 1509.47638,55.4875105 1516.10731,63.075164 C1522.73824,70.6628175 1527.71136,79.5544655 1531.02683,89.7503749 C1534.34229,99.9462843 1536,110.813854 1536,122.35341 C1536,135.157576 1534.14495,146.736477 1530.43478,157.090463 C1526.72462,167.444448 1521.39627,176.296578 1514.44958,183.647117 C1507.50289,190.997657 1499.09595,196.688311 1489.22849,200.719252 C1479.36104,204.750193 1468.34912,206.765633 1456.19241,206.765633 L1400.30342,206.765633 Z M1523.92229,122.35341 C1523.92229,111.762311 1522.42246,102.001257 1519.42276,93.0699567 C1516.42305,84.1386562 1512.04197,76.4325613 1506.27937,69.9514406 C1500.51678,63.4703199 1493.45178,58.4119601 1485.08418,54.7762095 C1476.71658,51.1404589 1467.08609,49.3226108 1456.19241,49.3226108 L1412.38113,49.3226108 L1412.38113,195.858436 L1456.19241,195.858436 C1467.24397,195.858436 1476.99287,194.00107 1485.43941,190.286281 C1493.88595,186.571492 1500.95094,181.394577 1506.6346,174.75538 C1512.31825,168.116184 1516.6204,160.331052 1519.54117,151.399751 C1522.46193,142.468451 1523.92229,132.786434 1523.92229,122.35341 Z" id="Combined-Shape"></path>
        </g>
        <g id="icon-on-white">
            <g id="icon-on-black">
                <path d="M128,316.79942 C54.9683097,301.97477 0,237.406653 0,160 C0,71.63444 71.63444,0 160,0 C248.36556,0 320,71.63444 320,160 C320,237.406653 265.03169,301.97477 192,316.79942 L192,283.96744 C181.772162,286.599904 171.049586,288 160,288 C148.950414,288 138.227838,286.599904 128,283.96744 L128,316.79942 Z M160,256 C213.019336,256 256,213.019336 256,160 C256,106.980664 213.019336,64 160,64 C106.980664,64 64,106.980664 64,160 C64,213.019336 106.980664,256 160,256 Z" id="Background" fill="#BA3E48"></path>
                <path d="M128,316.79942 L128,283.96744 C138.227838,286.599904 148.950414,288 160,288 C171.049586,288 181.772162,286.599904 192,283.96744 L192,316.79942 C181.660482,318.898232 170.958907,320 160,320 C149.041093,320 138.339518,318.898232 128,316.79942 Z" id="Stump" fill="#FFFFFF"></path>
                <path d="M160,256 C213.019336,256 256,213.019336 256,160 C256,106.980664 213.019336,64 160,64 C106.980664,64 64,106.980664 64,160 C64,213.019336 106.980664,256 160,256 Z" id="Center" fill="#FFFFFF"></path>
            </g>
        </g>
    </g>
</svg>